<?xml version="1.0" encoding="UTF-8" standalone="no"?>
<!-- Created with Inkscape (http://www.inkscape.org/) -->

<svg
   xmlns:dc="http://purl.org/dc/elements/1.1/"
   xmlns:cc="http://creativecommons.org/ns#"
   xmlns:rdf="http://www.w3.org/1999/02/22-rdf-syntax-ns#"
   xmlns:svg="http://www.w3.org/2000/svg"
   xmlns="http://www.w3.org/2000/svg"
   xmlns:sodipodi="http://sodipodi.sourceforge.net/DTD/sodipodi-0.dtd"
   xmlns:inkscape="http://www.inkscape.org/namespaces/inkscape"
   width="1000"
   height="1000"
   viewBox="0 0 264.58333 264.58334"
   version="1.1"
   id="svg53"
   inkscape:version="0.92.3 (2405546, 2018-03-11)"
   sodipodi:docname="Logo-CSS3.svg">
  <defs
     id="defs47" />
  <sodipodi:namedview
     id="base"
     pagecolor="#ffffff"
     bordercolor="#666666"
     borderopacity="1.0"
     inkscape:pageopacity="0.0"
     inkscape:pageshadow="2"
     inkscape:zoom="0.24748737"
     inkscape:cx="490.65151"
     inkscape:cy="536.95084"
     inkscape:document-units="mm"
     inkscape:current-layer="layer1"
     showgrid="false"
     units="px"
     inkscape:pagecheckerboard="true"
     inkscape:window-width="1280"
     inkscape:window-height="666"
     inkscape:window-x="0"
     inkscape:window-y="0"
     inkscape:window-maximized="1" />
  <metadata
     id="metadata50">
    <rdf:RDF>
      <cc:Work
         rdf:about="">
        <dc:format>image/svg+xml</dc:format>
        <dc:type
           rdf:resource="http://purl.org/dc/dcmitype/StillImage" />
        <dc:title></dc:title>
      </cc:Work>
    </rdf:RDF>
  </metadata>
  <g
     inkscape:label="Layer 1"
     inkscape:groupmode="layer"
     id="layer1"
     transform="translate(0,-32.41665)">
    <g
       transform="matrix(8.238414,0,0,8.238414,0.46880425,32.893693)"
       id="g8">
      <polygon
         style="fill:#1f62ae"
         points="16.001,32 4.625,28.889 2,0 30.002,0 27.377,28.889 "
         id="polygon2" />
      <polygon
         style="fill:#347dc6"
         points="16,2 16,29.75 25.232,27.008 27.688,2 "
         id="polygon4" />
      <polygon
         style="fill:#ffffff"
         points="16.026,12.99 24,10 24.363,6 7.607,6 8,10 16,10 8.25,12.99 8.619,17 19.502,17 19.158,21 16,21.99 12.861,20.984 12.533,19 8.803,19 9.262,23.987 16,25.99 22.728,23.986 23.719,12.99 "
         id="polygon6" />
    </g>
    <g
       transform="matrix(8.238414,0,0,8.238414,-11.094656,32.435548)"
       id="g10" />
    <g
       transform="matrix(8.238414,0,0,8.238414,-11.094656,32.435548)"
       id="g12" />
    <g
       transform="matrix(8.238414,0,0,8.238414,-11.094656,32.435548)"
       id="g14" />
    <g
       transform="matrix(8.238414,0,0,8.238414,-11.094656,32.435548)"
       id="g16" />
    <g
       transform="matrix(8.238414,0,0,8.238414,-11.094656,32.435548)"
       id="g18" />
    <g
       transform="matrix(8.238414,0,0,8.238414,-11.094656,32.435548)"
       id="g20" />
  </g>
</svg>
